# xmcd CD database file
#
# Track frame offsets:
#	150
#	19840
#	36317
#	52793
#	67946
#	87078
#	100902
#	118002
#	134571
#	150776
#	167325
#	181630
#	202224
#	215501
#	229691
#	248855
#	263645
#	276717
#
# Disc length: 3917 seconds
#
# Revision: 3
# Processed by: cddbd v1.5.2PL0 Copyright (c) Steve Scherf et al.
# Submitted via: CDex 1.70beta2
#
DISCID=f20f4b12
DTITLE=Various Artist - 続・青春歌年鑑 ’82
DYEAR=1982
DGENRE=歌謡曲
TTITLE0=聖母たちのララバイ - 岩崎  宏美
TTITLE1=情熱☆熱風・せれなーで - 近藤  真彦
TTITLE2=小麦色のマーメイド - 松田  聖子
TTITLE3=ジェームス・ディーンのように - Jonny
TTITLE4=い・け・な・いルージュマジック - 忌野  清志郎 and 坂本  龍一
TTITLE5=男の勲章 - 嶋　大輔
TTITLE6=NINJIN娘 - 田原  俊彦
TTITLE7=ラ・セゾン - アン・ルイス
TTITLE8=少女A - 中森  明菜
TTITLE9=デザイアー - もんた ＆ ブラザーズ
TTITLE10=100%…SOかもね！ - シブがき隊
TTITLE11=すずめ - 増田  恵子
TTITLE12=だって・フォーリンラブ・突然 - 三原  順子
TTITLE13=センチメンタル・ジャーニー - 松本  伊代
TTITLE14=南十字星 - 西城  秀樹
TTITLE15=ラブレター - 河合  奈保子
TTITLE16=渚のシンデレラ - 柏原　芳恵
TTITLE17=サチコ - ニック・ニューサ
EXTD=YEAR: 1982
EXTT0=
EXTT1=
EXTT2=
EXTT3=
EXTT4=
EXTT5=
EXTT6=
EXTT7=
EXTT8=
EXTT9=
EXTT10=
EXTT11=
EXTT12=
EXTT13=
EXTT14=
EXTT15=
EXTT16=
EXTT17=
PLAYORDER=
